<svg version="1.1" id="Layer_1" xmlns="http://www.w3.org/2000/svg" xmlns:xlink="http://www.w3.org/1999/xlink" x="0px" y="0px"
	 width="100%" viewBox="0 0 496 496" enable-background="new 0 0 496 496" xml:space="preserve">
<path fill="#000000" opacity="1.000000" stroke="none" 
	d="
M197.374298,338.625610 
	C214.982452,356.347229 232.340027,373.819336 249.986969,391.582672 
	C252.434540,389.304108 254.413727,387.569855 256.272217,385.714661 
	C275.260956,366.760345 294.152771,347.707794 313.277130,328.891449 
	C316.659149,325.563904 316.514435,323.506927 313.137390,320.502167 
	C308.787537,316.631805 304.692291,312.446594 300.753937,308.152496 
	C298.133026,305.294830 296.259491,305.231659 293.475128,308.077972 
	C282.755066,319.036591 271.811371,329.776215 260.969604,340.616028 
	C256.385651,345.199158 256.400787,345.225769 251.982437,340.809906 
	C204.836212,293.690338 157.729431,246.531174 110.470993,199.524460 
	C106.959190,196.031342 107.006866,193.924286 110.610443,190.826477 
	C114.390587,187.576904 117.920090,183.981659 121.207191,180.229218 
	C124.000793,177.040161 125.934044,177.332184 128.824738,180.252975 
	C149.570816,201.215149 170.458298,222.037506 191.321671,242.883438 
	C211.359207,262.904205 231.418732,282.903015 251.479370,302.900635 
	C252.991547,304.408081 254.589951,305.829010 256.907349,308.001923 
	C263.624542,301.091125 270.153564,294.482117 276.544769,287.742310 
	C278.914856,285.242950 276.203674,283.833557 274.833740,282.454437 
	C258.157990,265.666870 241.428040,248.933151 224.701645,232.195938 
	C200.318268,207.796799 175.986343,183.345596 151.470047,159.080719 
	C147.998322,155.644608 147.640686,153.674591 151.369186,149.998230 
	C183.644211,118.174324 215.698486,86.126556 247.829300,54.156311 
	C248.987411,53.003983 249.937775,51.549229 251.710663,51.134907 
	C253.636734,51.597042 254.684464,53.204433 255.956314,54.475651 
	C290.844025,89.345970 325.691010,124.257057 360.637848,159.067963 
	C363.315338,161.735062 363.953857,163.494156 360.774567,166.241547 
	C356.876068,169.610428 353.192322,173.290649 349.818115,177.184921 
	C346.700806,180.782669 344.550385,180.240738 341.403015,177.070145 
	C313.579803,149.041504 285.593506,121.174767 257.732513,93.183479 
	C255.874741,91.317047 254.645340,88.825188 253.452530,87.099869 
	C230.092957,110.399712 208.088348,132.348083 185.471970,154.906631 
	C191.201187,160.550842 197.261505,166.651306 203.483444,172.582214 
	C205.744766,174.737778 207.077698,172.228760 208.364777,170.952774 
	C219.133621,160.277023 229.834793,149.533081 240.572128,138.825485 
	C245.562515,133.848938 245.585144,133.858017 250.616608,138.884750 
	C297.537994,185.762009 344.422241,232.676605 391.448425,279.448517 
	C394.867249,282.848816 395.197601,284.953827 391.427826,288.126068 
	C387.618439,291.331573 384.192810,295.022614 380.807343,298.693024 
	C378.191437,301.529083 376.242767,301.485809 373.451965,298.676636 
	C352.430573,277.516571 331.265533,256.499207 310.150940,235.431732 
	C289.861084,215.187164 269.580475,194.933304 249.284195,174.695175 
	C248.242599,173.656555 247.091675,172.727600 245.174820,171.019852 
	C238.570618,177.813797 232.085251,184.444351 225.651917,191.125015 
	C223.258850,193.610077 225.690613,194.989883 227.120056,196.425446 
	C241.346283,210.712524 255.608856,224.963409 269.857727,239.227966 
	C296.706329,266.106140 323.554749,292.984528 350.397949,319.868073 
	C355.024200,324.501251 354.999023,324.500000 350.268768,329.213623 
	C317.927032,361.441833 285.566223,393.651031 253.303543,425.958221 
	C250.869095,428.396057 249.403320,428.039581 247.207520,425.836975 
	C211.911682,390.431702 176.573975,355.068085 141.194519,319.746338 
	C138.709732,317.265594 138.206543,315.401794 141.114929,312.797211 
	C145.205322,309.134155 149.110916,305.229492 152.785339,301.148804 
	C155.476364,298.160248 157.359390,298.411591 160.080917,301.187042 
	C172.330521,313.679474 184.759460,325.996094 197.374298,338.625610 
z"/>
</svg>