<svg version="1.1" id="Layer_1" xmlns="http://www.w3.org/2000/svg" xmlns:xlink="http://www.w3.org/1999/xlink" x="0px" y="0px"
	 width="100%" viewBox="0 0 500 500" enable-background="new 0 0 500 500" xml:space="preserve">
<path fill="#000000" opacity="1.000000" stroke="none" 
	d="
M230.000000,501.000000 
	C153.333359,501.000000 77.166702,501.000000 1.000041,501.000000 
	C1.000027,334.333405 1.000027,167.666779 1.000014,1.000130 
	C167.666565,1.000087 334.333130,1.000087 500.999756,1.000043 
	C500.999847,167.666519 500.999847,334.333038 500.999939,500.999786 
	C410.833344,501.000000 320.666656,501.000000 230.000000,501.000000 
M268.739044,148.848373 
	C265.579071,147.014740 262.336578,145.308014 259.277161,143.319672 
	C253.798767,139.759232 248.624207,139.946106 242.955872,143.249466 
	C221.006088,156.041260 198.947891,168.648468 176.856995,181.195755 
	C171.259338,184.375137 168.491730,188.632050 168.542953,195.278015 
	C168.740570,220.921082 168.724976,246.567245 168.554596,272.210693 
	C168.510742,278.811554 171.199356,283.067108 176.868103,286.271973 
	C198.983032,298.774811 221.023666,311.411957 242.967911,324.211792 
	C248.645554,327.523499 253.676346,327.447906 259.310699,324.165405 
	C281.119537,311.459625 303.005096,298.882660 324.981567,286.469299 
	C330.987732,283.076721 333.793854,278.505188 333.749146,271.567047 
	C333.587097,246.423065 333.599487,221.276932 333.740265,196.132721 
	C333.779938,189.052475 330.980316,184.356415 324.728149,180.863647 
	C306.173401,170.498077 287.836426,159.742706 268.739044,148.848373 
M340.999664,200.530502 
	C340.999664,196.704071 340.999664,192.877640 340.999664,189.051193 
	C340.612183,189.097092 340.224701,189.142990 339.837219,189.188889 
	C339.837219,218.677429 339.837219,248.165970 339.837219,277.654510 
	C340.224701,277.654266 340.612183,277.654053 340.999664,277.653809 
	C340.999664,252.275681 340.999664,226.897568 340.999664,200.530502 
M162.232101,266.468048 
	C162.232101,241.060410 162.232101,215.652771 162.232101,190.245132 
	C161.931259,190.246841 161.630432,190.248566 161.329590,190.250275 
	C161.329590,219.076111 161.329590,247.901932 161.329590,276.727753 
	C161.630432,276.733093 161.931259,276.738403 162.232101,276.743713 
	C162.232101,273.647308 162.232101,270.550873 162.232101,266.468048 
z"/>
<path fill="#FBFBFA" opacity="1.000000" stroke="none" 
	d="
M269.076691,148.994049 
	C287.836426,159.742706 306.173401,170.498077 324.728149,180.863647 
	C330.980316,184.356415 333.779938,189.052475 333.740265,196.132721 
	C333.599487,221.276932 333.587097,246.423065 333.749146,271.567047 
	C333.793854,278.505188 330.987732,283.076721 324.981567,286.469299 
	C303.005096,298.882660 281.119537,311.459625 259.310699,324.165405 
	C253.676346,327.447906 248.645554,327.523499 242.967911,324.211792 
	C221.023666,311.411957 198.983032,298.774811 176.868103,286.271973 
	C171.199356,283.067108 168.510742,278.811554 168.554596,272.210693 
	C168.724976,246.567245 168.740570,220.921082 168.542953,195.278015 
	C168.491730,188.632050 171.259338,184.375137 176.856995,181.195755 
	C198.947891,168.648468 221.006088,156.041260 242.955872,143.249466 
	C248.624207,139.946106 253.798767,139.759232 259.277161,143.319672 
	C262.336578,145.308014 265.579071,147.014740 269.076691,148.994049 
M237.228683,311.267181 
	C240.966782,313.446167 244.629822,315.774109 248.486420,317.717957 
	C249.726196,318.342926 251.805496,318.554413 252.939865,317.932343 
	C260.075195,314.019348 267.052399,309.817963 274.791168,305.297577 
	C270.701935,302.896210 267.033752,301.018463 263.678497,298.689850 
	C260.650269,296.588196 258.110596,296.516052 255.131226,298.745209 
	C253.095917,300.268066 251.113174,301.564423 247.984787,299.709045 
	C230.380508,289.268066 212.547653,279.212799 194.917435,268.814575 
	C193.466293,267.958710 192.131195,265.534637 192.115005,263.826263 
	C191.922623,243.503220 192.045944,223.177414 191.925049,202.853287 
	C191.908997,200.154434 192.751846,198.700684 195.088074,197.370331 
	C212.585983,187.406296 230.036636,177.357376 247.403900,167.167725 
	C250.073639,165.601349 252.013824,165.727371 254.608795,167.249161 
	C271.548065,177.183029 288.585510,186.949387 305.584595,196.781296 
	C312.085083,200.541031 311.988007,208.337158 305.423187,212.134338 
	C296.738953,217.157379 288.065430,222.199036 278.940979,227.491608 
	C283.445648,230.130966 287.186951,232.682755 291.247681,234.533920 
	C292.991669,235.328964 295.802917,235.421478 297.436859,234.543961 
	C305.789612,230.057999 313.990295,225.270828 322.054504,220.282425 
	C323.520477,219.375610 324.877533,217.081848 324.960907,215.364075 
	C325.291718,208.549652 324.858978,201.698074 325.192139,194.883881 
	C325.374359,191.156754 323.933075,189.277679 320.828369,187.509521 
	C298.848083,174.991684 276.940735,162.344376 255.099030,149.586197 
	C252.136841,147.855927 249.885056,147.764343 246.883377,149.518890 
	C224.901581,162.367752 202.856827,175.110626 180.725098,187.699142 
	C177.664597,189.439941 176.735718,191.424759 176.752609,194.805252 
	C176.880890,220.460556 176.891479,246.117188 176.740616,271.772247 
	C176.720459,275.202057 177.756058,277.142426 180.741104,278.836517 
	C199.411606,289.432465 217.977554,300.212677 237.228683,311.267181 
M270.225769,273.264587 
	C250.298233,261.745300 230.370697,250.226013 209.829865,238.352203 
	C209.829865,248.033051 209.803070,256.835876 209.871124,265.637939 
	C209.877960,266.520599 210.195724,267.827484 210.817200,268.210571 
	C215.356033,271.008209 220.009460,273.619934 225.492065,276.790802 
	C225.492065,272.400635 225.492065,269.206329 225.492065,265.498260 
	C227.822037,266.799988 229.554886,267.737915 231.259308,268.724976 
	C247.798889,278.303528 264.385193,287.803558 280.822968,297.553925 
	C283.816711,299.329742 285.931366,299.237244 288.850861,297.485535 
	C299.538300,291.072784 310.408600,284.964966 321.202942,278.730042 
	C326.937622,275.417664 326.989655,266.607086 321.294373,263.319824 
	C293.798645,247.449585 266.297333,231.589050 238.805328,215.712341 
	C237.247726,214.812820 235.755417,213.800186 233.920425,212.643326 
	C238.723465,209.864410 243.239059,207.448502 247.534103,204.689285 
	C249.914581,203.160004 251.728577,202.920853 254.239624,204.565933 
	C258.820068,207.566818 263.630524,210.240540 268.486969,212.779236 
	C269.691956,213.409149 271.713562,213.552139 272.890106,212.969864 
	C277.345581,210.764832 281.608093,208.169907 286.347137,205.492340 
	C275.358215,199.138260 264.673920,193.096359 254.154785,186.779404 
	C251.618378,185.256256 249.857468,185.532379 247.481598,186.933380 
	C236.314240,193.518494 225.038651,199.920013 213.803452,206.390106 
	C207.941895,209.765656 207.991760,215.716110 213.900131,219.141693 
	C242.514496,235.731812 271.128906,252.321869 299.734161,268.927673 
	C300.773682,269.531158 301.717865,270.298920 302.983826,271.183990 
	C301.342804,272.161377 300.222961,272.866333 299.068542,273.509277 
	C294.284088,276.173920 289.526001,280.807953 284.687500,280.897491 
	C280.110535,280.982178 275.445129,276.288300 270.225769,273.264587 
z"/>
<path fill="#FFFFFF" opacity="1.000000" stroke="none" 
	d="
M340.999664,201.024963 
	C340.999664,226.897568 340.999664,252.275681 340.999664,277.653809 
	C340.612183,277.654053 340.224701,277.654266 339.837219,277.654510 
	C339.837219,248.165970 339.837219,218.677429 339.837219,189.188889 
	C340.224701,189.142990 340.612183,189.097092 340.999664,189.051193 
	C340.999664,192.877640 340.999664,196.704071 340.999664,201.024963 
z"/>
<path fill="#FFFFFF" opacity="1.000000" stroke="none" 
	d="
M162.232101,266.961243 
	C162.232101,270.550873 162.232101,273.647308 162.232101,276.743713 
	C161.931259,276.738403 161.630432,276.733093 161.329590,276.727753 
	C161.329590,247.901932 161.329590,219.076111 161.329590,190.250275 
	C161.630432,190.248566 161.931259,190.246841 162.232101,190.245132 
	C162.232101,215.652771 162.232101,241.060410 162.232101,266.961243 
z"/>
<path fill="#A99946" opacity="1.000000" stroke="none" 
	d="
M236.903412,311.099518 
	C217.977554,300.212677 199.411606,289.432465 180.741104,278.836517 
	C177.756058,277.142426 176.720459,275.202057 176.740616,271.772247 
	C176.891479,246.117188 176.880890,220.460556 176.752609,194.805252 
	C176.735718,191.424759 177.664597,189.439941 180.725098,187.699142 
	C202.856827,175.110626 224.901581,162.367752 246.883377,149.518890 
	C249.885056,147.764343 252.136841,147.855927 255.099030,149.586197 
	C276.940735,162.344376 298.848083,174.991684 320.828369,187.509521 
	C323.933075,189.277679 325.374359,191.156754 325.192139,194.883881 
	C324.858978,201.698074 325.291718,208.549652 324.960907,215.364075 
	C324.877533,217.081848 323.520477,219.375610 322.054504,220.282425 
	C313.990295,225.270828 305.789612,230.057999 297.436859,234.543961 
	C295.802917,235.421478 292.991669,235.328964 291.247681,234.533920 
	C287.186951,232.682755 283.445648,230.130966 278.940979,227.491608 
	C288.065430,222.199036 296.738953,217.157379 305.423187,212.134338 
	C311.988007,208.337158 312.085083,200.541031 305.584595,196.781296 
	C288.585510,186.949387 271.548065,177.183029 254.608795,167.249161 
	C252.013824,165.727371 250.073639,165.601349 247.403900,167.167725 
	C230.036636,177.357376 212.585983,187.406296 195.088074,197.370331 
	C192.751846,198.700684 191.908997,200.154434 191.925049,202.853287 
	C192.045944,223.177414 191.922623,243.503220 192.115005,263.826263 
	C192.131195,265.534637 193.466293,267.958710 194.917435,268.814575 
	C212.547653,279.212799 230.380508,289.268066 247.984787,299.709045 
	C251.113174,301.564423 253.095917,300.268066 255.131226,298.745209 
	C258.110596,296.516052 260.650269,296.588196 263.678497,298.689850 
	C267.033752,301.018463 270.701935,302.896210 274.791168,305.297577 
	C267.052399,309.817963 260.075195,314.019348 252.939865,317.932343 
	C251.805496,318.554413 249.726196,318.342926 248.486420,317.717957 
	C244.629822,315.774109 240.966782,313.446167 236.903412,311.099518 
z"/>
<path fill="#040404" opacity="1.000000" stroke="none" 
	d="
M270.522217,273.480347 
	C275.445129,276.288300 280.110535,280.982178 284.687500,280.897491 
	C289.526001,280.807953 294.284088,276.173920 299.068542,273.509277 
	C300.222961,272.866333 301.342804,272.161377 302.983826,271.183990 
	C301.717865,270.298920 300.773682,269.531158 299.734161,268.927673 
	C271.128906,252.321869 242.514496,235.731812 213.900131,219.141693 
	C207.991760,215.716110 207.941895,209.765656 213.803452,206.390106 
	C225.038651,199.920013 236.314240,193.518494 247.481598,186.933380 
	C249.857468,185.532379 251.618378,185.256256 254.154785,186.779404 
	C264.673920,193.096359 275.358215,199.138260 286.347137,205.492340 
	C281.608093,208.169907 277.345581,210.764832 272.890106,212.969864 
	C271.713562,213.552139 269.691956,213.409149 268.486969,212.779236 
	C263.630524,210.240540 258.820068,207.566818 254.239624,204.565933 
	C251.728577,202.920853 249.914581,203.160004 247.534103,204.689285 
	C243.239059,207.448502 238.723465,209.864410 233.920425,212.643326 
	C235.755417,213.800186 237.247726,214.812820 238.805328,215.712341 
	C266.297333,231.589050 293.798645,247.449585 321.294373,263.319824 
	C326.989655,266.607086 326.937622,275.417664 321.202942,278.730042 
	C310.408600,284.964966 299.538300,291.072784 288.850861,297.485535 
	C285.931366,299.237244 283.816711,299.329742 280.822968,297.553925 
	C264.385193,287.803558 247.798889,278.303528 231.259308,268.724976 
	C229.554886,267.737915 227.822037,266.799988 225.492065,265.498260 
	C225.492065,269.206329 225.492065,272.400635 225.492065,276.790802 
	C220.009460,273.619934 215.356033,271.008209 210.817200,268.210571 
	C210.195724,267.827484 209.877960,266.520599 209.871124,265.637939 
	C209.803070,256.835876 209.829865,248.033051 209.829865,238.352203 
	C230.370697,250.226013 250.298233,261.745300 270.522217,273.480347 
z"/>
</svg>